<svg xmlns="http://www.w3.org/2000/svg" width="60.112" height="59.5" viewBox="0 0 60.112 59.5">
  <g id="medical_checkup_calendar" data-name="medical checkup calendar" transform="translate(-67 -315.5)">
    <g id="Group_885" data-name="Group 885" transform="translate(68 316.5)">
      <path id="Path_1829" data-name="Path 1829" d="M87.683,363.99H69.875A1.874,1.874,0,0,1,68,362.115V320.875A1.874,1.874,0,0,1,69.875,319h48.739a1.874,1.874,0,0,1,1.875,1.875v16.871" transform="translate(-68 -316.8)" fill="none" stroke="#024594" stroke-linecap="square" stroke-linejoin="round" stroke-width="2"/>
      <line id="Line_54" data-name="Line 54" y2="5" transform="translate(9.939)" fill="none" stroke="#024594" stroke-linecap="round" stroke-linejoin="round" stroke-width="2"/>
      <line id="Line_55" data-name="Line 55" y2="5" transform="translate(18.939)" fill="none" stroke="#024594" stroke-linecap="round" stroke-linejoin="round" stroke-width="2"/>
      <line id="Line_56" data-name="Line 56" y2="5" transform="translate(24.939)" fill="none" stroke="#024594" stroke-linecap="round" stroke-linejoin="round" stroke-width="2"/>
      <line id="Line_57" data-name="Line 57" y2="5" transform="translate(33.939)" fill="none" stroke="#024594" stroke-linecap="round" stroke-linejoin="round" stroke-width="2"/>
      <line id="Line_58" data-name="Line 58" y2="5" transform="translate(42.939)" fill="none" stroke="#024594" stroke-linecap="round" stroke-linejoin="round" stroke-width="2"/>
      <line id="Line_59" data-name="Line 59" x2="40" transform="translate(5.939 13)" fill="none" stroke="#024594" stroke-linecap="square" stroke-linejoin="round" stroke-width="2"/>
    </g>
    <path id="Path_1830" data-name="Path 1830" d="M117.62,365.62v10.31H107.31V365.62H97V355.31h10.31V345h10.31v10.31h10.31v10.31Z" transform="translate(-1.819 -1.93)" fill="#fff" stroke="#f68c42" stroke-linecap="round" stroke-linejoin="round" stroke-width="2"/>
  </g>
</svg>
