<svg xmlns="http://www.w3.org/2000/svg" width="60.041" height="42.87" viewBox="0 0 60.041 42.87">
  <path id="Path_3385" data-name="Path 3385" d="M33.069-79.426a32.119,32.119,0,0,0-8.682,5.059,14.213,14.213,0,0,0-5.059,8.532,17.569,17.569,0,0,1,10.041,2.793q4.153,2.794,4.153,9.136A10.054,10.054,0,0,1,29.747-45.6a13.614,13.614,0,0,1-8.758,3.02q-6.644,0-9.74-4.455a17.927,17.927,0,0,1-3.1-10.494,20.712,20.712,0,0,1,2.189-9.664,28.554,28.554,0,0,1,5.663-7.55,34.209,34.209,0,0,1,8-5.662,63.475,63.475,0,0,1,9.06-3.851Zm33.673,0a32.119,32.119,0,0,0-8.682,5.059A14.213,14.213,0,0,0,53-65.836a17.569,17.569,0,0,1,10.041,2.793q4.153,2.794,4.153,9.136A10.054,10.054,0,0,1,63.42-45.6a13.614,13.614,0,0,1-8.758,3.02q-6.644,0-9.739-4.455a17.927,17.927,0,0,1-3.1-10.494,20.712,20.712,0,0,1,2.189-9.664,28.554,28.554,0,0,1,5.663-7.55,34.209,34.209,0,0,1,8-5.662,63.475,63.475,0,0,1,9.06-3.851Z" transform="translate(67.695 -42.082) rotate(180)" fill="none" stroke="#ff9d00" stroke-width="1"/>
</svg>
